HIERARCHY
ROOT root
{
	OFFSET 0.000000 0.000000 0.000000
	CHANNELS 6 Xposition Yposition Zposition Zrotation Yrotation Xrotation
	JOINT lhip
	{
		OFFSET 0.058581 -0.082280 -0.017664
		CHANNELS 3 Zrotation Yrotation Xrotation
		JOINT lknee
		{
			OFFSET 0.043451 -0.386469 0.008037
			CHANNELS 3 Zrotation Yrotation Xrotation
			JOINT lankle
			{
				OFFSET -0.014790 -0.426874 -0.037428
				CHANNELS 3 Zrotation Yrotation Xrotation
				JOINT ltoe
				{
					OFFSET 0.041054 -0.060286 0.122042
					CHANNELS 3 Zrotation Yrotation Xrotation
					End Site
					{
						OFFSET 0.000000 0.000000 0.000000
					}
				}
			}
		}
	}
	JOINT rhip
	{
		OFFSET -0.060310 -0.090513 -0.013543
		CHANNELS 3 Zrotation Yrotation Xrotation
		JOINT rknee
		{
			OFFSET -0.043257 -0.383688 -0.004843
			CHANNELS 3 Zrotation Yrotation Xrotation
			JOINT rankle
			{
				OFFSET 0.019056 -0.420046 -0.034562
				CHANNELS 3 Zrotation Yrotation Xrotation
				JOINT rtoe
				{
					OFFSET -0.034840 -0.062106 0.130323
					CHANNELS 3 Zrotation Yrotation Xrotation
					End Site
					{
						OFFSET 0.000000 0.000000 0.000000
					}
				}
			}
		}
	}
	JOINT lowerback
	{
		OFFSET 0.004439 0.124404 -0.038385
		CHANNELS 3 Zrotation Yrotation Xrotation
		JOINT upperback
		{
			OFFSET 0.004488 0.137956 0.026820
			CHANNELS 3 Zrotation Yrotation Xrotation
			JOINT chest
			{
				OFFSET -0.002265 0.056032 0.002855
				CHANNELS 3 Zrotation Yrotation Xrotation
				JOINT lowerneck
				{
					OFFSET -0.013390 0.211636 -0.033468
					CHANNELS 3 Zrotation Yrotation Xrotation
					JOINT upperneck
					{
						OFFSET 0.010113 0.088937 0.050410
						CHANNELS 3 Zrotation Yrotation Xrotation
						End Site
						{
							OFFSET 0.000000 0.000000 0.000000
						}
					}
				}
				JOINT lclavicle
				{
					OFFSET 0.071702 0.114000 -0.018898
					CHANNELS 3 Zrotation Yrotation Xrotation
					JOINT lshoulder
					{
						OFFSET 0.122921 0.045205 -0.019046
						CHANNELS 3 Zrotation Yrotation Xrotation
						JOINT lelbow
						{
							OFFSET 0.255332 -0.015649 -0.022946
							CHANNELS 3 Zrotation Yrotation Xrotation
							JOINT lwrist
							{
								OFFSET 0.265709 0.012698 -0.007375
								CHANNELS 3 Zrotation Yrotation Xrotation
								End Site
								{
									OFFSET 0.000000 0.000000 0.000000
								}
							}
						}
					}
				}
				JOINT rclavicle
				{
					OFFSET -0.082954 0.112472 -0.023707
					CHANNELS 3 Zrotation Yrotation Xrotation
					JOINT rshoulder
					{
						OFFSET -0.113228 0.046853 -0.008472
						CHANNELS 3 Zrotation Yrotation Xrotation
						JOINT relbow
						{
							OFFSET -0.260127 -0.014369 -0.031269
							CHANNELS 3 Zrotation Yrotation Xrotation
							JOINT rwrist
							{
								OFFSET -0.269108 0.006794 -0.006027
								CHANNELS 3 Zrotation Yrotation Xrotation
								End Site
								{
									OFFSET 0.000000 0.000000 0.000000
								}
							}
						}
					}
				}
			}
		}
	}
}
MOTION
Frames: 11
Frame Time: 0.033333
0.512983 -0.765601 0.836187 156.127495 5.755996 125.312249 0.390036 7.633540 -78.887467 -10.220687 32.196621 62.996409 12.031565 2.731978 -23.290248 0.000000 -0.000000 0.000000 -14.627020 -11.516731 -27.560958 8.165645 -8.108741 41.519106 4.720403 5.006680 -26.080764 0.000000 -0.000000 0.000000 -1.424437 11.806000 12.337061 3.806936 -4.739922 -8.932590 0.818865 2.475820 -2.865541 -5.614364 1.409758 -7.759192 3.431558 8.548956 -14.064374 -33.729260 -4.940524 21.505511 -60.245979 35.520245 -6.949540 3.925825 -33.258794 2.646250 22.974037 -6.995252 3.679544 31.831403 18.447094 18.260568 41.479432 17.301502 -12.405145 -46.911864 45.188665 -52.970696 -14.141094 11.068141 -13.051834 
0.551555 -0.665123 0.848610 158.736665 7.235548 122.851637 -0.997587 7.132460 -75.338118 -12.149914 30.367740 46.780874 10.704075 1.306673 -21.773041 0.000000 -0.000000 0.000000 -11.837945 -7.650071 -15.434241 3.537593 -5.294618 33.169668 15.737628 7.489118 -5.267269 0.000000 -0.000000 0.000000 -3.361402 11.613408 14.228559 3.553442 -7.747520 -7.944684 1.342911 0.458857 -2.586489 -3.313004 0.802732 -7.666438 5.618028 10.868860 -10.248770 -32.061539 -3.737623 20.380869 -66.128485 31.589169 -9.414790 7.383423 -28.922002 -3.332039 21.707505 -6.584595 3.992601 28.265617 12.907374 12.352259 55.830850 13.599820 -5.686090 -56.332137 47.764038 -61.340595 -8.135061 8.386162 -18.292655 
0.586672 -0.560312 0.850781 160.628936 9.759209 120.170159 -0.710715 5.818282 -69.380065 -11.023658 30.103309 39.909618 16.877071 4.528963 -19.669789 0.000000 -0.000000 0.000000 -7.258741 -2.033229 -8.020978 1.322603 -0.913111 33.020205 14.781001 2.420825 4.745296 0.000000 -0.000000 0.000000 -3.573000 9.447226 14.832289 2.567640 -8.209340 -6.725488 1.029383 -0.782967 -1.061031 -2.137835 1.033442 -7.780394 6.984388 16.228163 -9.388174 -32.614636 -2.119432 17.943899 -66.477219 25.763659 -8.442443 10.912243 -25.204268 -10.475595 23.838036 -4.717913 2.915000 26.036151 8.416052 10.483753 63.952426 8.337603 -0.007444 -60.651546 50.442306 -67.195777 -6.120742 7.956568 -29.681941 
0.616022 -0.456919 0.844010 162.532248 10.956406 119.435034 -0.895368 1.711031 -64.575054 -7.563721 29.583824 48.370093 21.011750 11.535813 -26.201145 0.000000 -0.000000 0.000000 -4.801774 2.341316 -8.699667 4.291373 -1.220550 45.907394 12.736177 2.451602 2.308821 0.000000 -0.000000 0.000000 -3.922649 7.122723 14.047236 1.948510 -8.715856 -6.127431 -0.063699 -1.564788 -0.651756 -0.901137 0.760524 -6.834599 7.764893 19.416915 -9.992750 -35.017981 -2.834862 14.995227 -63.833218 21.693082 -5.786022 14.622930 -22.853985 -18.496383 27.144543 -3.911339 2.964846 24.696683 6.920567 10.676242 69.169582 0.858251 3.528175 -66.222578 52.785999 -73.978611 -5.287797 7.412170 -42.441037 
0.639623 -0.358932 0.836847 163.584589 11.856087 119.831760 -0.533346 -2.755715 -59.822841 -8.164641 22.860265 53.507547 21.221662 15.742974 -31.743456 0.000000 -0.000000 0.000000 -4.512720 3.542786 -16.110823 4.061267 -5.542516 64.292908 10.752784 0.768142 -1.361956 0.000000 -0.000000 0.000000 -4.203754 5.316032 12.943848 1.571291 -8.900783 -5.043982 -1.002603 -1.995081 -0.808300 0.130964 1.395714 -6.523104 7.347557 21.386161 -12.540751 -37.352031 -5.394676 12.292410 -59.579887 15.825461 -2.449214 17.479634 -20.660023 -23.719145 29.570074 -3.531029 4.445722 24.796294 5.940048 10.879922 70.368528 -4.775940 4.654066 -71.107661 56.860045 -78.008103 -1.954722 8.577341 -51.108215 
0.654502 -0.267471 0.832614 163.704989 12.220383 121.275080 -0.813591 -5.699180 -55.066555 -7.301891 21.416273 55.018685 20.912751 19.458661 -34.230615 0.000000 -0.000000 0.000000 -5.315928 4.919608 -30.312462 0.691051 -7.746396 84.497820 3.389790 -6.597864 -4.817646 0.000000 -0.000000 0.000000 -4.597324 3.297990 11.965434 1.459626 -8.093091 -5.270468 -1.562008 -2.898952 -0.522934 -0.134489 1.090134 -7.367714 7.381267 22.718216 -14.944411 -38.036361 -9.136480 10.888080 -56.425807 8.179510 -0.176977 20.885982 -20.162601 -27.575049 29.787923 -2.981028 5.163743 24.825590 6.264683 10.905142 70.903661 -6.852793 6.509488 -79.760689 57.382011 -83.867745 2.145764 10.549162 -55.187380 
0.663437 -0.173763 0.833515 165.146062 13.065036 122.201777 -3.564984 -5.363946 -47.322653 -8.190933 17.062934 52.616234 19.442461 20.669278 -36.359885 0.000000 -0.000000 0.000000 -4.894522 6.256331 -46.156011 -0.872068 -7.831072 98.757901 -1.511342 -9.708045 -8.809689 0.000000 -0.000000 0.000000 -3.298577 -0.271457 13.030584 2.177138 -6.614138 -8.132435 -1.748144 -3.442635 0.869361 -0.110908 1.410218 -8.688382 8.081020 22.226486 -12.859015 -35.901044 -12.210398 9.345012 -56.792544 1.211859 1.258393 26.457318 -26.325073 -32.903960 31.426253 -2.220897 3.702376 23.619628 7.337094 9.609813 69.761144 -5.864030 7.307454 -87.161639 56.751362 -89.050750 3.241020 10.599041 -54.216288 
0.665567 -0.072541 0.837787 167.062217 14.958480 123.330426 -4.849583 -3.648930 -37.874413 -11.160178 11.450442 46.069926 19.327480 22.206321 -33.901128 0.000000 -0.000000 0.000000 -4.912614 8.008379 -62.572607 -1.196675 -9.413173 102.236605 -2.820705 -10.207505 -12.544826 0.000000 -0.000000 0.000000 0.693564 -5.212620 12.594643 3.049950 -3.776307 -10.637606 -2.337917 -3.787363 2.828829 -0.020865 2.302506 -9.602847 6.720769 21.289642 -9.237842 -33.224058 -12.227967 7.824423 -57.557367 -3.910973 4.928571 33.024036 -39.707114 -35.043751 29.509810 -2.323528 0.195477 21.967232 7.645671 7.920313 65.468300 -1.284643 8.209458 -93.503301 56.770512 -93.539886 3.832347 12.268432 -52.314283 
0.664673 0.039386 0.848965 169.767709 17.834275 124.653467 -4.119282 -1.702084 -26.294526 -10.717956 6.287132 36.058529 15.012212 19.004924 -28.783398 0.000000 -0.000000 0.000000 -6.552647 10.355833 -75.511352 -2.770371 -13.381527 95.208874 -4.646684 -8.006181 -15.836913 0.000000 -0.000000 0.000000 7.200581 -10.996487 11.484987 3.830466 -1.012170 -10.586553 -2.771283 -3.994910 2.629211 0.507131 4.787659 -9.833016 3.433336 20.772947 -6.058635 -30.592699 -12.024438 6.281282 -58.715599 -5.117224 8.947793 43.626884 -52.306756 -36.936880 24.849232 -7.985455 1.678049 20.464726 8.843993 5.629451 61.808539 5.815982 8.391728 -98.554306 55.665017 -95.060867 4.576015 13.362769 -45.014831 
0.664289 0.160740 0.864435 171.428406 20.664617 124.837738 -2.722804 -0.786566 -13.860419 -8.749391 1.566675 25.611139 8.286321 14.121450 -14.375554 0.000000 -0.000000 0.000000 -8.065568 11.938592 -82.769878 -0.014057 -17.131726 80.058640 -1.658833 -1.381285 -17.998310 0.000000 -0.000000 0.000000 12.418406 -15.358938 10.708517 5.362781 0.797129 -8.334405 -2.193524 -4.522630 1.252686 1.175476 8.036010 -10.305550 -0.904018 21.098268 -2.336871 -27.639187 -11.528107 4.870908 -61.970501 -3.685283 12.419163 54.728510 -59.665106 -40.723834 26.860711 -13.359982 6.818507 18.945253 11.199492 1.630820 61.835194 14.350631 10.003321 -103.858387 53.079126 -95.256736 10.176201 13.685654 -30.749343 
0.665216 0.286907 0.873684 171.226198 21.562490 124.482709 -3.964054 -1.281070 -2.987393 -3.635395 -1.127322 16.297097 3.791760 10.577421 -0.845061 0.000000 -0.000000 0.000000 -8.191445 11.700672 -84.978419 5.196422 -18.220254 59.685194 0.924441 2.549060 -15.597344 0.000000 -0.000000 0.000000 15.060167 -17.412882 9.511895 6.443604 0.880367 -6.086615 -0.821124 -5.323942 -0.001867 0.686530 9.448144 -9.346921 -5.169446 24.375264 -2.142044 -25.937894 -10.660050 5.459060 -65.334866 -1.415870 13.533749 54.237534 -62.330770 -37.976716 27.384624 -13.182189 6.336359 18.183540 14.657771 -0.285013 66.521728 24.458655 15.691334 -111.985807 50.556125 -97.886202 13.335697 12.053963 -14.516025 
